<svg xmlns="http://www.w3.org/2000/svg" viewBox="0 0 64 64" fill="none">
  <!-- Marketvry M Icon Favicon -->
  <rect width="64" height="64" rx="12" fill="hsl(220, 25%, 10%)"/>
  <!-- Simplified M from the logo -->
  <g transform="translate(8, 12) scale(0.047)">
    <path d="M 200,143 199,144 198,144 197,145 196,145 195,146 194,146 192,148 192,149 191,150 190,150 190,151 189,152 189,153 188,154 188,155 187,156 187,157 186,158 186,159 185,160 185,161 184,162 184,164 183,165 183,169 182,170 182,175 181,176 181,188 182,189 182,194 183,195 183,198 184,199 184,201 185,202 185,203 186,204 186,206 188,208 188,209 189,210 189,211 193,215 193,216 194,216 195,217 196,217 197,218 199,218 201,216 201,214 200,214 199,213 199,212 194,207 194,206 193,205 193,204 192,203 192,202 191,201 191,199 190,198 190,194 189,193 189,173 190,172 190,168 191,167 191,165 192,164 192,162 193,161 193,160 195,158 195,157 198,154 199,154 200,153 202,153 203,154 204,154 206,156 206,157 207,158 207,161 208,162 208,173 209,174 209,175 208,176 208,181 209,182 209,185 208,186 208,197 207,198 207,205 206,206 206,207 207,208 206,209 206,214 205,215 205,218 204,219 204,223 203,224 203,230 202,231 202,236 201,237 201,240 200,241 200,247 199,248 199,254 198,255 198,261 197,262 197,267 196,268 196,274 195,275 195,283 194,284 194,293 193,294 193,311 196,314 197,314 198,315 202,315 203,316 204,316 207,313 207,310 208,309 208,306 209,305 209,302 210,301 210,298 211,297 211,294 212,293 212,292 213,291 213,290 214,289 214,288 215,287 215,285 216,284 216,282 217,281 217,278 218,277 218,275 219,274 219,272 220,271 220,269 221,268 221,264 222,263 222,262 223,261 223,258 224,257 224,255 225,254 225,251 226,250 226,248 227,247 227,245 228,244 228,242 229,241 229,239 230,238 230,236 231,235 231,234 232,233 232,231 233,230 233,227 234,226 234,224 235,223 235,222 236,221 236,219 237,218 237,216 238,215 238,214 239,213 239,210 240,209 240,208 241,207 241,206 242,205 242,203 243,202 243,201 244,200 244,199 245,198 245,196 246,195 246,194 248,192 248,191 249,190 251,192 251,193 250,194 250,198 249,199 249,205 248,206 248,212 247,213 247,219 246,220 246,229 245,230 245,252 244,253 244,257 245,258 244,259 244,262 245,263 245,280 246,281 246,285 247,286 247,290 248,291 248,296 249,297 249,298 250,298 251,299 253,299 254,300 259,300 260,299 262,299 264,297 265,297 265,296 266,295 267,295 267,294 268,293 268,292 269,291 269,290 270,289 270,288 271,287 271,286 272,285 272,283 273,282 273,281 274,280 274,278 275,277 275,276 276,275 276,273 277,272 277,270 278,269 278,268 279,267 279,265 280,264 280,263 281,262 281,260 282,259 282,258 283,257 283,255 284,254 284,253 285,252 285,250 286,249 286,248 287,247 287,245 288,244 288,243 289,242 289,240 290,239 290,238 291,237 291,236 292,235 292,234 293,233 293,231 294,230 294,229 296,227 296,226 297,225 297,224 298,223 298,222 299,221 299,220 300,219 300,218 301,217 301,216 303,214 303,213 304,212 304,211 305,210 305,209 307,207 307,206 308,205 308,204 309,203 309,202 310,201 311,202 311,206 310,207 310,210 309,211 309,214 308,215 308,221 307,222 307,225 306,226 306,232 305,233 305,243 304,244 304,258 303,259 303,278 304,279 304,289 305,290 305,295 306,296 306,299 307,300 307,302 308,303 308,305 309,306 309,307 310,308 310,310 312,312 312,313 313,314 313,315 316,318 316,319 319,322 320,322 323,325 324,325 325,326 326,326 328,328 330,328 331,329 335,329 336,330 345,330 346,329 350,329 351,328 353,328 356,325 356,321 354,319 344,319 343,318 340,318 339,317 338,317 337,316 336,316 329,309 329,308 328,307 328,306 327,305 327,303 326,302 326,300 325,299 325,296 324,295 324,291 323,290 323,284 322,283 322,248 323,247 323,238 324,237 324,230 325,229 325,224 326,223 326,219 327,218 327,213 328,212 328,208 329,207 329,203 330,202 330,198 331,197 331,184 330,183 330,182 327,179 326,179 323,176 322,176 321,175 316,175 315,176 313,176 312,177 311,177 309,179 308,179 306,181 306,182 305,183 304,183 304,184 301,187 301,189 298,192 298,193 297,194 297,196 295,198 295,199 293,201 293,202 292,203 292,204 290,206 290,207 289,208 289,209 288,210 288,211 287,212 287,213 286,214 286,216 284,218 284,220 283,221 283,222 282,223 282,224 281,225 281,226 280,227 280,229 279,230 279,231 278,232 278,233 277,234 277,235 276,236 276,238 275,239 275,240 274,241 274,243 273,244 273,245 272,246 272,247 271,248 271,249 270,250 270,253 269,254 269,256 268,257 268,259 267,260 267,262 266,263 266,265 265,266 265,268 264,269 264,271 263,272 262,271 262,259 263,258 263,246 264,245 264,235 265,234 265,225 266,224 266,218 267,217 267,209 268,208 268,200 269,199 269,189 270,188 270,176 269,175 269,173 265,169 262,169 261,168 254,168 253,169 252,169 250,171 249,171 249,172 248,173 247,173 241,179 241,180 240,181 240,182 238,184 238,185 237,186 237,187 235,189 235,190 233,192 233,193 232,194 232,196 231,197 231,199 229,201 229,203 228,204 228,205 227,206 227,207 226,208 226,209 225,210 225,213 224,214 224,215 223,216 223,217 222,218 221,217 221,213 222,212 222,200 223,199 223,171 222,170 222,165 221,164 221,161 220,160 220,158 219,157 219,155 218,154 218,153 217,152 217,151 215,149 215,148 213,146 212,146 210,144 208,144 207,143 Z" fill="#ffffff" />
  </g>
  <!-- Cyan accent underline -->
  <path d="M 10 54 Q 32 52, 54 54" stroke="hsl(192, 85%, 48%)" stroke-width="3" stroke-linecap="round" fill="none"/>
</svg>