<?xml version="1.0" encoding="utf-8" ?>
<svg baseProfile="full" height="512" version="1.1" width="1024" xmlns="http://www.w3.org/2000/svg" xmlns:ev="http://www.w3.org/2001/xml-events" xmlns:xlink="http://www.w3.org/1999/xlink"><defs /><path d="M 496,171 495,172 495,173 494,174 494,175 493,176 493,178 492,179 492,180 491,181 491,183 490,184 490,186 489,187 489,189 488,190 488,192 487,193 487,195 486,196 486,199 485,200 485,202 484,203 484,205 483,206 483,209 482,210 482,213 481,214 481,217 480,218 480,221 479,222 479,226 478,227 478,231 477,232 477,236 476,237 476,241 475,242 475,247 474,248 474,250 471,253 471,256 470,257 469,257 469,258 468,259 468,260 467,261 467,262 466,263 466,265 465,266 465,267 464,268 464,269 463,270 463,271 461,273 461,274 459,276 459,277 457,279 457,280 451,286 450,286 448,288 446,288 445,289 443,289 442,288 441,288 440,287 440,286 439,285 439,282 438,281 438,270 439,269 439,262 440,261 440,258 441,257 441,255 442,254 442,252 443,251 443,250 444,249 444,248 445,247 445,246 447,244 447,243 448,242 448,237 446,235 446,234 432,234 431,233 431,230 432,229 432,220 431,219 431,218 430,217 430,216 428,214 427,214 426,213 419,213 418,214 417,214 413,218 413,219 412,220 412,221 411,222 411,223 410,224 410,228 409,229 409,232 410,233 410,235 411,236 411,237 414,240 414,241 415,241 416,242 417,242 418,243 419,243 420,244 418,246 418,247 417,248 417,249 416,250 416,251 415,252 415,253 414,254 414,255 413,256 413,257 412,258 412,259 411,260 411,261 410,262 410,263 409,264 409,265 408,266 408,267 407,268 407,269 406,270 406,271 403,274 403,275 402,276 402,278 397,283 396,283 395,284 394,284 393,285 391,285 389,283 389,282 388,281 388,277 387,276 387,265 388,264 388,256 389,255 389,250 390,249 390,245 391,244 391,239 392,238 391,237 391,234 390,233 389,233 388,232 383,232 382,231 381,231 379,229 377,229 376,228 372,228 371,229 368,229 367,230 365,230 364,231 363,231 361,233 360,233 351,242 351,243 349,245 349,246 347,248 347,249 346,250 346,251 345,252 345,253 344,254 344,255 343,256 343,258 342,259 342,261 341,262 341,266 340,267 340,274 341,275 341,277 342,278 342,280 343,281 343,282 344,283 344,284 345,285 346,285 348,287 351,287 352,288 357,288 358,287 361,287 362,286 363,286 365,284 366,284 366,283 370,279 370,278 372,276 372,275 373,274 375,276 375,281 376,282 376,284 377,285 377,287 378,288 378,289 383,294 385,294 386,295 389,295 390,296 391,295 395,295 396,294 397,294 398,293 400,293 409,284 409,283 412,280 412,279 413,278 413,277 414,276 414,275 416,273 416,272 417,271 417,270 418,269 418,268 419,267 419,266 420,265 420,263 421,262 421,261 422,260 422,259 425,256 426,257 426,260 425,261 425,265 424,266 424,280 425,281 425,284 426,285 426,287 427,288 427,289 428,290 428,291 429,292 429,293 433,297 434,297 436,299 438,299 439,300 449,300 450,299 452,299 453,298 454,298 455,297 456,297 458,295 459,295 463,291 463,290 465,288 465,287 467,285 467,284 468,283 468,282 469,281 470,282 470,290 471,291 471,295 472,296 473,296 474,297 475,297 477,299 478,299 479,300 483,300 484,299 484,298 485,297 485,295 486,294 486,291 487,290 487,288 488,287 488,280 489,279 489,275 490,274 491,274 493,276 493,277 501,285 502,285 504,287 505,287 506,288 507,288 508,289 509,289 510,290 513,290 514,291 524,291 525,290 528,290 529,289 530,289 531,288 533,288 534,287 535,287 536,286 537,286 538,285 539,285 540,284 541,284 542,283 542,282 543,281 545,281 548,284 548,285 550,287 551,287 554,290 555,290 556,291 559,291 560,292 567,292 568,291 571,291 572,290 574,290 575,289 577,289 578,288 579,288 581,286 582,286 584,284 585,284 587,282 588,282 592,278 593,278 594,279 594,282 595,283 595,287 596,288 596,289 597,290 597,292 598,293 598,294 600,296 600,297 603,300 604,300 605,301 606,301 607,302 616,302 617,301 619,301 621,299 622,299 630,291 630,290 633,287 633,286 634,285 634,284 636,282 636,281 637,280 637,279 639,277 640,277 641,278 641,285 644,288 645,288 647,290 648,290 649,291 653,291 654,290 655,290 656,289 657,289 657,288 659,286 659,285 661,283 661,282 663,280 663,279 664,278 664,277 666,275 666,274 667,273 667,272 669,270 669,269 671,267 671,266 673,264 673,263 675,261 675,260 678,257 678,256 686,248 689,251 690,251 691,252 693,252 694,251 697,251 699,249 700,249 701,248 702,248 703,247 703,246 707,242 708,243 708,244 707,245 707,247 706,248 706,252 705,253 705,256 704,257 704,263 703,264 703,281 704,282 704,285 705,286 705,288 706,289 706,290 707,291 707,293 711,297 712,297 714,299 715,299 716,300 718,300 719,301 727,301 728,300 730,300 731,299 732,299 733,298 734,298 740,292 740,291 742,289 742,288 744,286 744,285 745,284 745,283 746,282 746,280 748,278 748,276 749,275 749,273 750,272 751,272 755,276 756,276 757,277 758,277 759,278 766,278 767,277 769,277 770,276 771,276 773,274 774,274 777,271 778,271 784,265 785,266 785,270 784,271 784,276 782,278 782,280 781,281 780,281 778,283 777,283 777,284 773,288 773,289 768,294 768,295 766,297 766,298 764,300 764,301 762,303 762,304 760,306 760,307 759,308 759,309 757,311 757,312 755,314 755,315 754,316 754,317 753,318 753,319 752,320 752,321 751,322 751,323 750,324 750,326 749,327 749,329 748,330 748,332 747,333 747,334 746,335 746,338 745,339 745,342 744,343 744,356 745,357 745,359 746,360 746,361 748,363 748,364 749,365 750,365 751,366 753,366 754,367 761,367 762,366 763,366 764,365 765,365 768,362 769,362 770,361 770,360 774,356 774,355 776,353 776,352 777,351 777,350 778,349 778,348 779,347 779,346 780,345 780,344 781,343 781,341 782,340 782,339 783,338 783,336 784,335 784,334 785,333 785,330 786,329 786,327 787,326 787,323 788,322 788,320 789,319 789,316 790,315 790,311 791,310 791,307 792,306 792,302 793,301 793,297 794,296 794,292 795,291 795,286 796,285 796,280 805,271 806,271 810,267 811,267 814,264 815,264 817,262 818,262 820,260 821,260 823,258 824,258 825,257 826,257 827,256 829,256 830,255 831,255 832,254 835,254 836,253 842,253 843,252 845,252 844,251 844,250 843,249 844,248 843,247 842,247 841,246 832,246 831,247 829,247 828,248 825,248 824,249 822,249 821,250 820,250 819,251 818,251 817,252 816,252 815,253 814,253 813,254 811,254 808,257 807,257 804,260 803,260 802,261 801,261 800,260 800,258 801,257 801,253 802,252 802,248 803,247 803,242 804,241 804,237 805,236 805,231 804,230 804,229 803,228 802,228 800,226 799,226 798,225 794,225 793,226 793,228 792,229 792,232 791,233 791,234 790,235 790,238 786,242 785,242 784,243 784,244 774,254 774,255 772,257 771,257 769,259 769,260 768,261 767,261 764,264 763,264 762,265 761,264 761,251 762,250 762,246 763,245 763,242 764,241 764,238 765,237 765,230 762,227 758,227 757,228 756,228 755,229 754,229 753,230 753,231 752,232 752,233 751,234 751,235 750,236 750,238 749,239 749,241 748,242 748,244 747,245 747,248 746,249 746,263 745,264 745,265 743,267 743,268 740,271 740,272 739,273 739,274 738,275 738,276 736,278 736,279 733,282 733,283 732,284 731,284 731,285 729,287 728,287 727,288 725,288 724,289 722,289 721,290 720,290 719,289 719,288 718,287 718,286 717,285 717,282 716,281 716,269 717,268 717,262 718,261 718,258 719,257 719,254 720,253 720,251 721,250 721,248 722,247 722,246 723,245 723,243 725,241 725,240 727,238 727,236 726,235 726,233 725,232 724,232 723,231 720,231 719,230 718,230 717,231 710,231 708,229 708,227 709,226 709,225 710,224 710,222 711,221 711,216 710,215 710,214 708,212 707,212 706,211 702,211 701,212 700,212 699,213 698,213 697,214 696,214 691,219 691,220 690,221 690,230 691,231 691,232 696,237 694,239 692,239 691,240 688,240 687,241 686,240 685,240 682,237 680,237 679,236 677,238 676,238 674,240 673,240 671,242 671,243 668,246 668,247 666,249 666,250 664,252 664,253 662,255 662,256 661,257 661,258 660,259 660,260 658,262 658,263 656,265 656,266 655,267 655,269 654,270 653,269 653,245 652,244 652,235 651,234 651,233 648,230 647,230 646,229 644,229 643,230 642,230 642,232 641,233 641,236 640,237 640,254 639,255 639,256 638,257 637,257 636,258 636,260 635,261 635,262 634,263 634,264 633,265 633,267 631,269 631,271 629,273 629,274 628,275 628,276 627,277 627,278 625,280 625,281 623,283 623,284 621,286 620,286 620,287 619,288 618,288 615,291 611,291 609,289 609,284 608,283 608,265 609,264 609,255 610,254 610,247 611,246 611,242 612,241 612,237 613,236 613,232 614,231 614,228 615,227 615,224 616,223 616,220 617,219 617,216 618,215 618,213 619,212 619,210 620,209 620,208 621,207 627,207 628,206 633,206 634,205 641,205 642,204 652,204 653,205 660,205 661,206 663,206 664,207 665,207 668,210 671,210 672,209 672,204 670,202 669,202 668,201 667,201 666,200 665,200 664,199 663,199 662,198 660,198 659,197 656,197 655,196 650,196 649,195 628,195 627,196 624,196 623,195 623,194 624,193 624,191 625,190 625,184 624,184 622,182 619,182 618,181 617,182 616,182 614,184 614,185 613,186 613,187 612,188 612,189 611,190 611,191 610,192 610,194 609,195 609,196 606,199 605,199 604,200 597,200 596,201 591,201 590,200 587,200 585,198 584,198 583,197 582,197 580,199 580,203 581,204 581,206 585,210 587,210 588,211 601,211 602,212 602,214 601,215 601,218 600,219 600,223 599,224 599,226 598,227 598,231 597,232 597,237 596,238 596,243 595,244 595,250 594,251 594,265 593,266 593,267 591,269 590,269 587,272 586,272 584,274 583,274 581,276 580,276 578,278 577,278 576,279 574,279 573,280 571,280 570,281 567,281 566,282 563,282 562,281 561,281 558,278 558,276 557,275 557,271 560,268 561,268 565,264 566,264 573,257 573,256 576,253 576,252 577,251 577,250 579,248 579,247 580,246 580,244 581,243 581,241 582,240 582,234 581,233 581,231 576,226 575,226 574,225 572,225 571,224 565,224 564,225 562,225 561,226 560,226 558,228 557,228 552,233 552,234 550,236 550,237 548,239 548,240 547,241 547,242 546,243 546,244 545,245 545,247 544,248 544,250 543,251 543,253 542,254 542,259 541,260 541,269 537,273 536,273 534,275 533,275 531,277 530,277 529,278 527,278 526,279 519,279 518,278 517,278 516,277 515,277 508,270 508,269 506,267 506,266 505,265 505,264 504,263 504,262 503,261 505,259 506,259 510,255 511,255 512,254 512,253 513,252 514,252 520,246 520,245 525,240 525,239 527,237 527,236 529,234 529,233 530,232 530,231 531,230 531,228 532,227 532,223 531,222 531,221 530,220 530,219 529,218 528,218 527,217 518,217 517,218 515,218 514,219 513,219 511,221 510,221 503,228 503,229 502,230 501,230 501,231 499,233 499,234 497,236 497,237 496,238 495,237 495,234 496,233 496,228 497,227 497,223 498,222 498,218 499,217 499,213 500,212 500,209 501,208 501,205 502,204 502,200 503,199 503,197 504,196 504,193 505,192 505,189 506,188 506,185 507,184 507,178 506,177 506,175 504,173 503,173 502,172 501,172 500,171 Z" fill="white" /><path d="M 200,143 199,144 198,144 197,145 196,145 195,146 194,146 192,148 192,149 191,150 190,150 190,151 189,152 189,153 188,154 188,155 187,156 187,157 186,158 186,159 185,160 185,161 184,162 184,164 183,165 183,169 182,170 182,175 181,176 181,188 182,189 182,194 183,195 183,198 184,199 184,201 185,202 185,203 186,204 186,206 188,208 188,209 189,210 189,211 193,215 193,216 194,216 195,217 196,217 197,218 199,218 201,216 201,214 200,214 199,213 199,212 194,207 194,206 193,205 193,204 192,203 192,202 191,201 191,199 190,198 190,194 189,193 189,173 190,172 190,168 191,167 191,165 192,164 192,162 193,161 193,160 195,158 195,157 198,154 199,154 200,153 202,153 203,154 204,154 206,156 206,157 207,158 207,161 208,162 208,173 209,174 209,175 208,176 208,181 209,182 209,185 208,186 208,197 207,198 207,205 206,206 206,207 207,208 206,209 206,214 205,215 205,218 204,219 204,223 203,224 203,230 202,231 202,236 201,237 201,240 200,241 200,247 199,248 199,254 198,255 198,261 197,262 197,267 196,268 196,274 195,275 195,283 194,284 194,293 193,294 193,311 196,314 197,314 198,315 202,315 203,316 204,316 207,313 207,310 208,309 208,306 209,305 209,302 210,301 210,298 211,297 211,294 212,293 212,292 213,291 213,290 214,289 214,288 215,287 215,285 216,284 216,282 217,281 217,278 218,277 218,275 219,274 219,272 220,271 220,269 221,268 221,264 222,263 222,262 223,261 223,258 224,257 224,255 225,254 225,251 226,250 226,248 227,247 227,245 228,244 228,242 229,241 229,239 230,238 230,236 231,235 231,234 232,233 232,231 233,230 233,227 234,226 234,224 235,223 235,222 236,221 236,219 237,218 237,216 238,215 238,214 239,213 239,210 240,209 240,208 241,207 241,206 242,205 242,203 243,202 243,201 244,200 244,199 245,198 245,196 246,195 246,194 248,192 248,191 249,190 251,192 251,193 250,194 250,198 249,199 249,205 248,206 248,212 247,213 247,219 246,220 246,229 245,230 245,252 244,253 244,257 245,258 244,259 244,262 245,263 245,280 246,281 246,285 247,286 247,290 248,291 248,296 249,297 249,298 250,298 251,299 253,299 254,300 259,300 260,299 262,299 264,297 265,297 265,296 266,295 267,295 267,294 268,293 268,292 269,291 269,290 270,289 270,288 271,287 271,286 272,285 272,283 273,282 273,281 274,280 274,278 275,277 275,276 276,275 276,273 277,272 277,270 278,269 278,268 279,267 279,265 280,264 280,263 281,262 281,260 282,259 282,258 283,257 283,255 284,254 284,253 285,252 285,250 286,249 286,248 287,247 287,245 288,244 288,243 289,242 289,240 290,239 290,238 291,237 291,236 292,235 292,234 293,233 293,231 294,230 294,229 296,227 296,226 297,225 297,224 298,223 298,222 299,221 299,220 300,219 300,218 301,217 301,216 303,214 303,213 304,212 304,211 305,210 305,209 307,207 307,206 308,205 308,204 309,203 309,202 310,201 311,202 311,206 310,207 310,210 309,211 309,214 308,215 308,221 307,222 307,225 306,226 306,232 305,233 305,243 304,244 304,258 303,259 303,278 304,279 304,289 305,290 305,295 306,296 306,299 307,300 307,302 308,303 308,305 309,306 309,307 310,308 310,310 312,312 312,313 313,314 313,315 316,318 316,319 319,322 320,322 323,325 324,325 325,326 326,326 328,328 330,328 331,329 335,329 336,330 345,330 346,329 350,329 351,328 353,328 356,325 356,321 354,319 344,319 343,318 340,318 339,317 338,317 337,316 336,316 329,309 329,308 328,307 328,306 327,305 327,303 326,302 326,300 325,299 325,296 324,295 324,291 323,290 323,284 322,283 322,248 323,247 323,238 324,237 324,230 325,229 325,224 326,223 326,219 327,218 327,213 328,212 328,208 329,207 329,203 330,202 330,198 331,197 331,184 330,183 330,182 327,179 326,179 323,176 322,176 321,175 316,175 315,176 313,176 312,177 311,177 309,179 308,179 306,181 306,182 305,183 304,183 304,184 301,187 301,189 298,192 298,193 297,194 297,196 295,198 295,199 293,201 293,202 292,203 292,204 290,206 290,207 289,208 289,209 288,210 288,211 287,212 287,213 286,214 286,216 284,218 284,220 283,221 283,222 282,223 282,224 281,225 281,226 280,227 280,229 279,230 279,231 278,232 278,233 277,234 277,235 276,236 276,238 275,239 275,240 274,241 274,243 273,244 273,245 272,246 272,247 271,248 271,249 270,250 270,253 269,254 269,256 268,257 268,259 267,260 267,262 266,263 266,265 265,266 265,268 264,269 264,271 263,272 262,271 262,259 263,258 263,246 264,245 264,235 265,234 265,225 266,224 266,218 267,217 267,209 268,208 268,200 269,199 269,189 270,188 270,176 269,175 269,173 265,169 262,169 261,168 254,168 253,169 252,169 250,171 249,171 249,172 248,173 247,173 241,179 241,180 240,181 240,182 238,184 238,185 237,186 237,187 235,189 235,190 233,192 233,193 232,194 232,196 231,197 231,199 229,201 229,203 228,204 228,205 227,206 227,207 226,208 226,209 225,210 225,213 224,214 224,215 223,216 223,217 222,218 221,217 221,213 222,212 222,200 223,199 223,171 222,170 222,165 221,164 221,161 220,160 220,158 219,157 219,155 218,154 218,153 217,152 217,151 215,149 215,148 213,146 212,146 210,144 208,144 207,143 Z" fill="white" /></svg>